<svg data-v-0dd9719b="" version="1.0" xmlns="http://www.w3.org/2000/svg" xmlns:xlink="http://www.w3.org/1999/xlink" width="100%" height="100%" viewBox="0 0 340.000000 250.000000" preserveAspectRatio="xMidYMid meet" color-interpolation-filters="sRGB" style="margin: auto;"> <rect data-v-0dd9719b="" x="0" y="0" width="100%" height="100%" fill="#fff" fill-opacity="1" class="background"></rect> <rect data-v-0dd9719b="" x="0" y="0" width="100%" height="100%" fill="url(#watermark)" fill-opacity="1" class="watermarklayer"></rect> <g data-v-0dd9719b="" fill="#f90" class="icon-text-wrapper icon-svg-group iconsvg" transform="translate(49.625,95.00000003635907)"><g class="iconsvg-imagesvg" transform="translate(0,0)"><g><rect fill="#f90" fill-opacity="0" stroke-width="2" x="0" y="0" width="60" height="60" class="image-rect"></rect> <svg x="0" y="0" width="60" height="60" filtersec="colorsb5196293704" class="image-svg-svg primary" style="overflow: visible;"><svg version="1.1" id="图层_1" xmlns="http://www.w3.org/2000/svg" xmlns:xlink="http://www.w3.org/1999/xlink" x="0px" y="0px" viewBox="0.7699999809265137 0.64000004529953 98.36000061035156 98.36000061035156" enable-background="new 0 0 100 100" xml:space="preserve">
<g>
	<polygon fill-rule="evenodd" clip-rule="evenodd" fill="#CC0000" points="99.13,47.73 99.13,0.64 47.85,0.64 37.6,0.64 0.77,0.64 
		0.77,47.73 15.64,47.73 15.64,10.17 32.98,10.17 32.98,47.73 37.6,47.73 47.85,47.73 71.1,47.73 71.1,85.28 80.06,85.28 
		80.06,47.73 	"></polygon>
	<polygon fill-rule="evenodd" clip-rule="evenodd" fill="#FF9900" points="35.92,99 47.85,99 99.13,99 99.13,51.91 84.25,51.91 
		84.25,89.46 66.92,89.46 66.92,51.91 47.85,51.91 35.92,51.91 28.79,51.91 28.79,14.36 19.83,14.36 19.83,51.91 0.77,51.91 
		0.77,99 	"></polygon>
</g>
</svg></svg> <!----></g></g> <g transform="translate(67,0.96875)"><g data-gra="path-name" fill-rule="" class="tp-name iconsvg-namesvg" transform="translate(0,0)"><g transform="scale(1)"><g><path d="M2.61-27.22L9.09-27.22 9.09-36.59 10.57-36.59 10.57-27.22 17.05-27.22 17.05-25.61 10.57-25.61 10.57-21.55Q11.61-20.61 12.64-19.62 13.68-18.63 14.71-17.59L14.71-17.59Q15.75-16.56 16.58-15.64 17.41-14.71 17.91-14.04L17.91-14.04 16.74-12.91Q16.25-13.54 15.52-14.4 14.8-15.25 13.81-16.29L13.81-16.29Q12.82-17.32 12.04-18.13 11.25-18.95 10.57-19.53L10.57-19.53 10.57 5.17 9.09 5.17 9.09-21.06Q8.28-18.5 7.33-15.93L7.33-15.93Q5.4-10.98 3.01-6.66L3.01-6.66 1.48-7.47Q4-11.7 5.96-16.4 7.92-21.11 8.96-25.61L8.96-25.61 2.61-25.61 2.61-27.22ZM15.3 5.04L14.17 3.92Q15.25 2.92 16.11 2.07 16.96 1.21 17.64 0.4 18.31-0.4 18.79-1.26 19.26-2.11 19.62-3.06L19.62-3.06Q20.34-5 20.56-7.58 20.79-10.17 20.79-14.13L20.79-14.13 20.79-20.7 34.78-20.7 34.78-1.53Q34.78-0.27 34.83 0.45 34.88 1.17 35.03 1.53 35.19 1.89 35.5 2 35.82 2.11 36.36 2.16L36.36 2.16Q36.81 2.25 37.44 2.25 38.07 2.25 38.61 2.16L38.61 2.16Q39.2 2.11 39.58 2 39.96 1.89 40.16 1.48 40.37 1.08 40.48 0.29 40.59-0.49 40.73-1.89L40.73-1.89Q40.77-2.52 40.86-3.76 40.95-5 40.99-5.76L40.99-5.76 42.52-5.31Q42.48-4.91 42.43-4.37 42.39-3.82 42.37-3.28 42.34-2.75 42.3-2.25 42.25-1.75 42.21-1.44L42.21-1.44Q42.07 0.18 41.85 1.17 41.63 2.16 41.24 2.7 40.86 3.24 40.25 3.44 39.64 3.65 38.66 3.73L38.66 3.73Q38.16 3.82 37.46 3.82 36.77 3.82 36.18 3.73L36.18 3.73Q35.28 3.69 34.7 3.46 34.11 3.24 33.77 2.68 33.44 2.11 33.3 1.13 33.16 0.14 33.16-1.48L33.16-1.48 33.16-19.08 22.36-19.08 22.36-13.77Q22.36-9.81 22.09-7.13 21.82-4.46 21.06-2.38L21.06-2.38Q20.29-0.4 18.92 1.3 17.55 3.01 15.3 5.04L15.3 5.04ZM25.88-35.95L27.4-36.41Q27.77-35.68 28.17-34.72 28.57-33.75 28.98-32.71L28.98-32.71Q29.34-31.77 29.61-30.91 29.88-30.06 30.11-29.38L30.11-29.38 42.25-29.38 42.25-27.81 16.96-27.81 16.96-29.38 28.39-29.38Q28.17-30.06 27.9-30.85 27.63-31.63 27.36-32.4L27.36-32.4Q26.95-33.48 26.55-34.42 26.14-35.37 25.88-35.95L25.88-35.95ZM49.19 5.67L47.84 4.63Q53.46-1.08 55.13-5.98L55.13-5.98Q56.79-10.98 56.79-22.5L56.79-22.5 56.79-36.27 58.32-36.27 58.32-22.45Q58.32-10.75 56.61-5.35L56.61-5.35Q54.95-0.14 49.19 5.67L49.19 5.67ZM81.99-36.27L83.56-36.27 83.56 4.86 81.99 4.86 81.99-36.27ZM69.16-35.05L70.74-35.05 70.74 4.27 69.16 4.27 69.16-35.05ZM48.55-11.47L47.16-12.15Q47.79-13.37 48.47-14.94 49.14-16.52 49.75-18.25 50.35-19.98 50.87-21.69 51.39-23.4 51.75-24.84L51.75-24.84 53.28-24.43Q52.88-22.9 52.31-21.15 51.75-19.39 51.12-17.68 50.49-15.97 49.81-14.35 49.14-12.73 48.55-11.47L48.55-11.47ZM60.21-24.07L61.52-24.79Q62.14-23.76 62.93-22.25 63.72-20.75 64.48-19.13 65.25-17.5 65.9-15.91 66.56-14.31 66.91-13.18L66.91-13.18 65.47-12.55Q65.11-13.68 64.44-15.28 63.77-16.88 63.02-18.52 62.28-20.16 61.52-21.64 60.75-23.13 60.21-24.07L60.21-24.07ZM73.22-24.07L74.52-24.79Q75.15-23.76 75.87-22.36 76.59-20.97 77.44-19.13L77.44-19.13Q78.34-17.28 78.95-15.82 79.56-14.35 79.92-13.18L79.92-13.18 78.53-12.51Q77.76-14.89 76.09-18.4L76.09-18.4Q75.24-20.25 74.54-21.64 73.84-23.04 73.22-24.07L73.22-24.07ZM94.55-31.99L104.4-31.99 104.4-2.21 94.55-2.21 94.55-31.99ZM95.98-30.42L95.98-3.87 102.96-3.87 102.96-30.42 95.98-30.42ZM110.88 4.14L110.61 2.48Q112 2.56 113.17 2.59 114.34 2.61 115.74 2.56L115.74 2.56Q116.73 2.52 117.34 2.34 117.94 2.16 118.28 1.75 118.62 1.35 118.73 0.7 118.84 0.04 118.84-0.99L118.84-0.99 118.84-12.73 105.84-12.73 105.84-14.35 118.84-14.35 118.84-31.68Q116.14-31.32 113.44-30.98 110.75-30.64 108.05-30.38L108.05-30.38 107.82-31.99Q113.44-32.58 119.09-33.37 124.74-34.16 130.37-35.14L130.37-35.14 130.91-33.57Q128.2-33.07 125.59-32.65 122.98-32.22 120.38-31.86L120.38-31.86 120.38-14.35 132.88-14.35 132.88-12.73 120.38-12.73 120.38-0.72Q120.38 0.45 120.22 1.3 120.06 2.16 119.61 2.75 119.16 3.33 118.37 3.65 117.58 3.96 116.37 4.05L116.37 4.05Q114.88 4.14 113.65 4.16 112.41 4.18 110.88 4.14L110.88 4.14ZM124.52-17.23L123.21-17.91Q123.84-18.77 124.6-19.98 125.37-21.2 126.22-22.81L126.22-22.81Q127.13-24.43 127.75-25.74 128.38-27.04 128.84-28.08L128.84-28.08 130.41-27.58Q129.96-26.55 129.26-25.22 128.56-23.89 127.66-22.23L127.66-22.23Q126.77-20.61 125.95-19.37 125.14-18.13 124.52-17.23L124.52-17.23ZM108.59-27.31L109.89-27.99Q110.47-27.09 111.17-25.85 111.87-24.61 112.72-23.04L112.72-23.04Q113.58-21.46 114.21-20.18 114.84-18.9 115.2-17.91L115.2-17.91 113.85-17.19Q113.49-18.18 112.88-19.48 112.28-20.79 111.42-22.36L111.42-22.36Q109.75-25.61 108.59-27.31L108.59-27.31ZM140.13-30.02L160.38-30.02Q161.01-30.6 161.75-31.43 162.5-32.27 163.26-33.21L163.26-33.21Q164.2-34.34 165.04-35.44 165.87-36.54 166.37-37.3L166.37-37.3 167.76-36.45Q167.26-35.68 166.43-34.6 165.6-33.52 164.7-32.45L164.7-32.45Q164.16-31.77 163.6-31.14 163.03-30.51 162.5-30.02L162.5-30.02 172.66-30.02 172.66-19.75 158.26-19.75 158.26-12.55 175.23-12.55Q175.23-11.25 175.16-9.97 175.09-8.69 175.03-7.51 174.96-6.34 174.89-5.38 174.82-4.41 174.74-3.73L174.74-3.73Q174.6-2.79 174.31-2.11 174.01-1.44 173.43-0.97 172.84-0.49 171.9-0.2 170.95 0.09 169.51 0.18L169.51 0.18Q168.97 0.22 168.32 0.25 167.67 0.27 167 0.27 166.32 0.27 165.67 0.25 165.01 0.22 164.52 0.22L164.52 0.22 164.25-1.53Q165.47-1.44 166.81-1.4 168.16-1.35 169.2-1.4L169.2-1.4Q170.32-1.44 171.05-1.57 171.76-1.71 172.22-2.02 172.66-2.34 172.87-2.86 173.07-3.38 173.16-4.14L173.16-4.14Q173.3-5.54 173.38-7.13 173.47-8.73 173.52-11.03L173.52-11.03 158.26-11.03 158.26 5.13 156.69 5.13 156.69-9.95Q153.63-6.12 149.06-2.81 144.5 0.49 137.75 3.46L137.75 3.46 136.98 2.07Q143.59-0.67 148.07-3.96 152.55-7.25 155.52-11.03L155.52-11.03 140.67-11.03 142.02-21.2 156.69-21.2 156.69-28.53 140.13-28.53 140.13-30.02ZM143.46-19.75L142.47-12.55 156.69-12.55 156.69-19.75 143.46-19.75ZM171.09-28.53L158.26-28.53 158.26-21.2 171.09-21.2 171.09-28.53ZM146.7-36.31L147.78-37.44Q148.41-36.9 149.22-36.07 150.03-35.23 150.84-34.36 151.65-33.48 152.37-32.65 153.09-31.81 153.54-31.23L153.54-31.23 152.24-30.24Q151.83-30.82 151.16-31.61 150.48-32.4 149.72-33.23 148.95-34.06 148.16-34.88 147.38-35.68 146.7-36.31L146.7-36.31Z" transform="translate(-1.4800000190734863, 37.439998626708984)"></path></g> <!----> <!----> <!----> <!----> <!----> <!----> <!----></g></g> <g data-gra="path-slogan" fill-rule="" class="tp-slogan iconsvg-slogansvg" fill="#f90" transform="translate(5,49.11000061035156)"><rect x="0" height="1" y="3.9750003814697266" width="29.400001525878906"></rect> <rect height="1" y="3.9750003814697266" width="29.400001525878906" x="134.3499984741211"></rect> <g transform="translate(32.400001525878906,0)"><g transform="scale(1)"><path d="M2.06-5.06L6.56-5.06L6.56-8.58L7.73-8.58L7.73 0L6.56 0L6.56-3.98L2.06-3.98L2.06 0L0.89 0L0.89-8.58L2.06-8.58L2.06-5.06ZM15.19 0L14.34-2.48L10.88-2.48L9.98 0L8.81 0L12.05-8.58L13.36-8.58L16.45 0L15.19 0ZM12.61-7.31L11.25-3.52L13.92-3.52L12.66-7.31L12.61-7.31ZM18.89-8.58L23.20-1.64L23.20-8.58L24.33-8.58L24.33 0L23.02 0L18.66-6.94L18.61-6.94L18.61 0L17.48 0L17.48-8.58L18.89-8.58ZM32.53-3.61L29.91-3.61L29.91-4.59L33.66-4.59L33.66 0L32.91 0L32.63-1.08Q31.64 0.09 29.81 0.14L29.81 0.14Q28.08 0.14 27.14-0.75L27.14-0.75Q25.73-2.06 25.78-4.36L25.78-4.36Q26.11-8.63 29.86-8.81L29.86-8.81Q33.05-8.63 33.52-6L33.52-6L32.39-6Q31.92-7.78 29.81-7.83L29.81-7.83Q27.14-7.64 27-4.31L27-4.31Q27-0.75 29.86-0.75L29.86-0.75Q30.89-0.75 31.64-1.31L31.64-1.31Q32.58-2.06 32.53-3.61L32.53-3.61ZM36.28-1.03L41.58-1.03L41.58 0L34.83 0L34.83-0.94L40.08-7.59L35.20-7.59L35.20-8.58L41.58-8.58L41.58-7.59L36.28-1.03ZM43.88-5.06L48.38-5.06L48.38-8.58L49.55-8.58L49.55 0L48.38 0L48.38-3.98L43.88-3.98L43.88 0L42.70 0L42.70-8.58L43.88-8.58L43.88-5.06ZM58.13-4.27L58.13-4.27Q57.94-7.64 55.13-7.83L55.13-7.83Q52.27-7.69 52.13-4.27L52.13-4.27Q52.27-0.94 55.13-0.80L55.13-0.80Q57.94-0.98 58.13-4.27ZM59.30-4.27L59.30-4.27Q59.02 0 55.13 0.14L55.13 0.14Q51.19 0 50.91-4.27L50.91-4.27Q51.14-8.72 55.13-8.81L55.13-8.81Q59.02-8.67 59.30-4.27ZM66.33-3.19L66.33-8.58L67.50-8.58L67.50-3.05Q67.36 0.05 63.98 0.14L63.98 0.14Q60.84 0.05 60.70-2.86L60.70-2.86L60.70-8.58L61.88-8.58L61.88-3.19Q61.92-0.84 64.03-0.80L64.03-0.80Q66.33-0.84 66.33-3.19L66.33-3.19ZM73.78-5.06L78.28-5.06L78.28-8.58L79.45-8.58L79.45 0L78.28 0L78.28-3.98L73.78-3.98L73.78 0L72.61 0L72.61-8.58L73.78-8.58L73.78-5.06ZM86.91-3.19L86.91-8.58L88.08-8.58L88.08-3.05Q87.94 0.05 84.56 0.14L84.56 0.14Q81.42 0.05 81.28-2.86L81.28-2.86L81.28-8.58L82.45-8.58L82.45-3.19Q82.50-0.84 84.61-0.80L84.61-0.80Q86.91-0.84 86.91-3.19L86.91-3.19ZM93.38 0L89.91 0L89.91-8.58L93.42-8.58Q96.89-8.39 97.03-4.41L97.03-4.41Q96.84-0.09 93.38 0L93.38 0ZM93.23-7.64L91.08-7.64L91.08-0.98L93.33-0.98Q95.77-1.13 95.86-4.31L95.86-4.31Q95.81-7.55 93.23-7.64L93.23-7.64ZM98.67-8.58L99.84-8.58L99.84 0L98.67 0L98.67-8.58Z" transform="translate(-0.890625, 8.8125)"></path></g></g></g></g></g><defs v-gra="od"></defs></svg>